<?xml version="1.0" encoding="UTF-8" standalone="no"?>
<!DOCTYPE svg PUBLIC "-//W3C//DTD SVG 1.1//EN"
 "http://www.w3.org/Graphics/SVG/1.1/DTD/svg11.dtd">
<!-- Generated by graphviz version 2.43.0 (0)
 -->
<!-- Title: %3 Pages: 1 -->
<svg width="2273pt" height="1830pt"
 viewBox="0.00 0.00 2273.00 1830.00" xmlns="http://www.w3.org/2000/svg" xmlns:xlink="http://www.w3.org/1999/xlink">
<g id="graph0" class="graph" transform="scale(1 1) rotate(0) translate(4 1826)">
<title>%3</title>
<polygon fill="white" stroke="transparent" points="-4,4 -4,-1826 2269,-1826 2269,4 -4,4"/>
<!-- controller_frequency -->
<g id="node1" class="node">
<title>controller_frequency</title>
<text text-anchor="middle" x="303" y="-1127.3" font-family="Times,serif" font-size="14.00">controller_frequency</text>
</g>
<!-- acc_lim_trans -->
<g id="node6" class="node">
<title>acc_lim_trans</title>
<text text-anchor="middle" x="512.5" y="-733.3" font-family="Times,serif" font-size="14.00">acc_lim_trans</text>
</g>
<!-- controller_frequency&#45;&gt;acc_lim_trans -->
<g id="edge79" class="edge">
<title>controller_frequency&#45;&gt;acc_lim_trans</title>
<path fill="none" stroke="red" d="M304.99,-1102.48C308.85,-1035.13 327.84,-864.73 421,-769 428.06,-761.74 436.87,-756.13 446.19,-751.79"/>
<polygon fill="red" stroke="red" points="301.48,-1102.57 304.47,-1112.74 308.47,-1102.93 301.48,-1102.57"/>
<polygon fill="red" stroke="red" points="447.76,-754.93 455.64,-747.85 445.07,-748.46 447.76,-754.93"/>
</g>
<!-- forward_point_distance -->
<g id="node8" class="node">
<title>forward_point_distance</title>
<text text-anchor="middle" x="512.5" y="-408.3" font-family="Times,serif" font-size="14.00">forward_point_distance</text>
</g>
<!-- controller_frequency&#45;&gt;forward_point_distance -->
<g id="edge89" class="edge">
<title>controller_frequency&#45;&gt;forward_point_distance</title>
<path fill="none" stroke="red" d="M311.53,-1103.01C329.79,-1035.35 378.08,-857.62 421,-710 450.01,-610.22 486.47,-492.3 502.84,-439.72"/>
<polygon fill="red" stroke="red" points="308.09,-1102.34 308.86,-1112.9 314.85,-1104.16 308.09,-1102.34"/>
<polygon fill="red" stroke="red" points="506.21,-440.68 505.84,-430.1 499.52,-438.6 506.21,-440.68"/>
</g>
<!-- goal_distance_bias -->
<g id="node9" class="node">
<title>goal_distance_bias</title>
<text text-anchor="middle" x="714.5" y="-1080.3" font-family="Times,serif" font-size="14.00">goal_distance_bias</text>
</g>
<!-- controller_frequency&#45;&gt;goal_distance_bias -->
<g id="edge60" class="edge">
<title>controller_frequency&#45;&gt;goal_distance_bias</title>
<path fill="none" stroke="red" d="M395.59,-1120.49C465.65,-1112.45 561.48,-1101.45 629.57,-1093.63"/>
<polygon fill="red" stroke="red" points="394.93,-1117.04 385.39,-1121.66 395.73,-1123.99 394.93,-1117.04"/>
<polygon fill="red" stroke="red" points="630.29,-1097.07 639.83,-1092.46 629.49,-1090.12 630.29,-1097.07"/>
</g>
<!-- max_vel_theta -->
<g id="node11" class="node">
<title>max_vel_theta</title>
<text text-anchor="middle" x="914.5" y="-980.3" font-family="Times,serif" font-size="14.00">max_vel_theta</text>
</g>
<!-- controller_frequency&#45;&gt;max_vel_theta -->
<g id="edge51" class="edge">
<title>controller_frequency&#45;&gt;max_vel_theta</title>
<path fill="none" stroke="red" d="M363.93,-1109.67C382.14,-1103.56 402.28,-1097.16 421,-1092 570.57,-1050.8 749.09,-1014.88 844.79,-996.68"/>
<polygon fill="red" stroke="red" points="362.67,-1106.4 354.32,-1112.93 364.91,-1113.03 362.67,-1106.4"/>
<polygon fill="red" stroke="red" points="845.46,-1000.12 854.63,-994.82 844.16,-993.24 845.46,-1000.12"/>
</g>
<!-- sim_granularity -->
<g id="node21" class="node">
<title>sim_granularity</title>
<text text-anchor="middle" x="1120.5" y="-346.3" font-family="Times,serif" font-size="14.00">sim_granularity</text>
</g>
<!-- controller_frequency&#45;&gt;sim_granularity -->
<g id="edge88" class="edge">
<title>controller_frequency&#45;&gt;sim_granularity</title>
<path fill="none" stroke="red" d="M316.06,-1103.65C334.91,-1062.6 374.11,-983.71 421,-926 489.5,-841.7 524.37,-837.88 604,-764 620.36,-748.82 623.11,-743.58 640,-729 703.11,-674.51 744.13,-685.28 789,-615 828.69,-552.83 774.4,-506.67 825,-453 881.75,-392.81 927.56,-433.63 1004,-402 1020.91,-395 1023.48,-389.88 1040,-382 1047.08,-378.62 1054.62,-375.28 1062.13,-372.1"/>
<polygon fill="red" stroke="red" points="312.87,-1102.21 311.92,-1112.77 319.24,-1105.11 312.87,-1102.21"/>
<polygon fill="red" stroke="red" points="1063.69,-375.24 1071.58,-368.17 1061,-368.78 1063.69,-375.24"/>
</g>
<!-- update_frequency -->
<g id="node32" class="node">
<title>update_frequency</title>
<text text-anchor="middle" x="1492" y="-582.3" font-family="Times,serif" font-size="14.00">update_frequency</text>
</g>
<!-- controller_frequency&#45;&gt;update_frequency -->
<g id="edge52" class="edge">
<title>controller_frequency&#45;&gt;update_frequency</title>
<path fill="none" stroke="red" d="M354.94,-1152.87C431.34,-1183.65 580.83,-1236 713.5,-1236 713.5,-1236 713.5,-1236 1121.5,-1236 1245.72,-1236 1303.45,-1234.57 1384,-1140 1418.85,-1099.08 1472.58,-721.17 1487.21,-614.13"/>
<polygon fill="red" stroke="red" points="356.12,-1149.58 345.54,-1149.05 353.48,-1156.06 356.12,-1149.58"/>
<polygon fill="red" stroke="red" points="1490.7,-614.47 1488.58,-604.09 1483.76,-613.52 1490.7,-614.47"/>
</g>
<!-- inflation_radius -->
<g id="node34" class="node">
<title>inflation_radius</title>
<text text-anchor="middle" x="1310.5" y="-1109.3" font-family="Times,serif" font-size="14.00">inflation_radius</text>
</g>
<!-- controller_frequency&#45;&gt;inflation_radius -->
<g id="edge86" class="edge">
<title>controller_frequency&#45;&gt;inflation_radius</title>
<path fill="none" stroke="red" d="M395.22,-1141.17C478.12,-1149.53 603.86,-1160 713.5,-1160 713.5,-1160 713.5,-1160 915.5,-1160 1027.91,-1160 1157.09,-1140.91 1236,-1127.06"/>
<polygon fill="red" stroke="red" points="395.38,-1137.67 385.07,-1140.14 394.67,-1144.63 395.38,-1137.67"/>
<polygon fill="red" stroke="red" points="1237.08,-1130.42 1246.31,-1125.23 1235.86,-1123.53 1237.08,-1130.42"/>
</g>
<!-- Planner_failed -->
<g id="node35" class="node">
<title>Planner_failed</title>
<text text-anchor="middle" x="1492" y="-1085.3" font-family="Times,serif" font-size="14.00">Planner_failed</text>
</g>
<!-- controller_frequency&#45;&gt;Planner_failed -->
<g id="edge21" class="edge">
<title>controller_frequency&#45;&gt;Planner_failed</title>
<path fill="none" stroke="blue" d="M315.4,-1149.03C333.83,-1176.37 372.98,-1227.52 421,-1250 539.13,-1305.31 583.06,-1274 713.5,-1274 713.5,-1274 713.5,-1274 1121.5,-1274 1180.08,-1274 1337.3,-1285.36 1384,-1250 1419.67,-1222.99 1395.11,-1193.17 1420,-1156 1430.64,-1140.11 1445.7,-1125.21 1459.21,-1113.51"/>
<polygon fill="blue" stroke="blue" points="1461.54,-1116.13 1466.94,-1107.01 1457.03,-1110.77 1461.54,-1116.13"/>
</g>
<!-- Obstacle_distance -->
<g id="node40" class="node">
<title>Obstacle_distance</title>
<text text-anchor="middle" x="1677" y="-1182.3" font-family="Times,serif" font-size="14.00">Obstacle_distance</text>
</g>
<!-- controller_frequency&#45;&gt;Obstacle_distance -->
<g id="edge4" class="edge">
<title>controller_frequency&#45;&gt;Obstacle_distance</title>
<path fill="none" stroke="blue" d="M313.56,-1149.27C352.57,-1221.08 507.53,-1480 713.5,-1480 713.5,-1480 713.5,-1480 1121.5,-1480 1349.63,-1480 1575.51,-1283.35 1650.22,-1211.71"/>
<polygon fill="blue" stroke="blue" points="1653.03,-1213.86 1657.78,-1204.39 1648.16,-1208.83 1653.03,-1213.86"/>
</g>
<!-- Energy -->
<g id="node41" class="node">
<title>Energy</title>
<text text-anchor="middle" x="2010" y="-1457.3" font-family="Times,serif" font-size="14.00">Energy</text>
</g>
<!-- controller_frequency&#45;&gt;Energy -->
<g id="edge38" class="edge">
<title>controller_frequency&#45;&gt;Energy</title>
<path fill="none" stroke="blue" d="M308.84,-1149.13C334.02,-1238.95 458.77,-1632 713.5,-1632 713.5,-1632 713.5,-1632 1121.5,-1632 1295.5,-1632 1758.02,-1657.16 1901,-1558 1931.05,-1537.16 1909.35,-1507.94 1937,-1484 1945.19,-1476.91 1955.6,-1471.99 1965.93,-1468.6"/>
<polygon fill="blue" stroke="blue" points="1967.09,-1471.9 1975.74,-1465.78 1965.16,-1465.18 1967.09,-1471.9"/>
</g>
<!-- Task_success_rate -->
<g id="node42" class="node">
<title>Task_success_rate</title>
<text text-anchor="middle" x="2192" y="-1060.3" font-family="Times,serif" font-size="14.00">Task_success_rate</text>
</g>
<!-- controller_frequency&#45;&gt;Task_success_rate -->
<g id="edge2" class="edge">
<title>controller_frequency&#45;&gt;Task_success_rate</title>
<path fill="none" stroke="blue" d="M322.58,-1112.73C344.34,-1092.38 382.36,-1059.98 421,-1042 787.62,-871.37 905.12,-846 1309.5,-846 1309.5,-846 1309.5,-846 1846.5,-846 1953.03,-846 1994.82,-825.23 2083,-885 2137.31,-921.81 2168.77,-995.88 2182.57,-1036.24"/>
<polygon fill="blue" stroke="blue" points="2179.32,-1037.57 2185.78,-1045.97 2185.97,-1035.38 2179.32,-1037.57"/>
</g>
<!-- planner_patience -->
<g id="node2" class="node">
<title>planner_patience</title>
<text text-anchor="middle" x="92.5" y="-263.3" font-family="Times,serif" font-size="14.00">planner_patience</text>
</g>
<!-- acc_lim_theta -->
<g id="node5" class="node">
<title>acc_lim_theta</title>
<text text-anchor="middle" x="303" y="-309.3" font-family="Times,serif" font-size="14.00">acc_lim_theta</text>
</g>
<!-- planner_patience&#45;&gt;acc_lim_theta -->
<g id="edge73" class="edge">
<title>planner_patience&#45;&gt;acc_lim_theta</title>
<path fill="none" stroke="red" d="M172.12,-284.35C193.32,-289.02 216.03,-294.03 236.44,-298.54"/>
<polygon fill="red" stroke="red" points="172.58,-280.86 162.06,-282.13 171.07,-287.7 172.58,-280.86"/>
<polygon fill="red" stroke="red" points="235.73,-301.96 246.25,-300.7 237.24,-295.13 235.73,-301.96"/>
</g>
<!-- max_vel_trans -->
<g id="node12" class="node">
<title>max_vel_trans</title>
<text text-anchor="middle" x="714.5" y="-301.3" font-family="Times,serif" font-size="14.00">max_vel_trans</text>
</g>
<!-- planner_patience&#45;&gt;max_vel_trans -->
<g id="edge58" class="edge">
<title>planner_patience&#45;&gt;max_vel_trans</title>
<path fill="none" stroke="red" d="M172.57,-271.85C294.98,-279.35 528.33,-293.65 644.39,-300.76"/>
<polygon fill="red" stroke="red" points="172.42,-268.33 162.22,-271.21 171.99,-275.32 172.42,-268.33"/>
<polygon fill="red" stroke="red" points="644.38,-304.27 654.57,-301.39 644.81,-297.28 644.38,-304.27"/>
</g>
<!-- planner_patience&#45;&gt;sim_granularity -->
<g id="edge43" class="edge">
<title>planner_patience&#45;&gt;sim_granularity</title>
<path fill="none" stroke="red" d="M171.99,-253.17C255.78,-239.62 392.59,-221 511.5,-221 511.5,-221 511.5,-221 715.5,-221 853.43,-221 1005.84,-290.08 1077.67,-327.14"/>
<polygon fill="red" stroke="red" points="171.34,-249.73 162.03,-254.79 172.47,-256.64 171.34,-249.73"/>
<polygon fill="red" stroke="red" points="1076.36,-330.41 1086.85,-331.93 1079.6,-324.2 1076.36,-330.41"/>
</g>
<!-- controller_patience -->
<g id="node3" class="node">
<title>controller_patience</title>
<text text-anchor="middle" x="914.5" y="-1430.3" font-family="Times,serif" font-size="14.00">controller_patience</text>
</g>
<!-- vth_samples -->
<g id="node26" class="node">
<title>vth_samples</title>
<text text-anchor="middle" x="1120.5" y="-926.3" font-family="Times,serif" font-size="14.00">vth_samples</text>
</g>
<!-- controller_patience&#45;&gt;vth_samples -->
<g id="edge25" class="edge">
<title>controller_patience&#45;&gt;vth_samples</title>
<path fill="none" stroke="blue" d="M942.17,-1415.99C962.89,-1400.39 990.33,-1375.81 1004,-1347 1041.31,-1268.37 986.11,-1025.34 1040,-957 1044.95,-950.72 1051.43,-945.9 1058.55,-942.19"/>
<polygon fill="blue" stroke="blue" points="1060.13,-945.31 1067.85,-938.06 1057.29,-938.91 1060.13,-945.31"/>
</g>
<!-- controller_patience&#45;&gt;Planner_failed -->
<g id="edge29" class="edge">
<title>controller_patience&#45;&gt;Planner_failed</title>
<path fill="none" stroke="blue" d="M991.69,-1435.37C1092.48,-1433.21 1270.57,-1415.14 1384,-1322 1449.22,-1268.45 1476.52,-1166.42 1486.3,-1117.09"/>
<polygon fill="blue" stroke="blue" points="1489.77,-1117.6 1488.18,-1107.13 1482.89,-1116.31 1489.77,-1117.6"/>
</g>
<!-- controller_patience&#45;&gt;Energy -->
<g id="edge1" class="edge">
<title>controller_patience&#45;&gt;Energy</title>
<path fill="none" stroke="blue" d="M965.55,-1452C1064.53,-1485.94 1292.86,-1556 1491,-1556 1491,-1556 1491,-1556 1678,-1556 1777.68,-1556 1807.17,-1565.66 1901,-1532 1930.14,-1521.55 1959.25,-1501.73 1979.89,-1485.69"/>
<polygon fill="blue" stroke="blue" points="1982.27,-1488.27 1987.92,-1479.31 1977.91,-1482.79 1982.27,-1488.27"/>
</g>
<!-- controller_patience&#45;&gt;Task_success_rate -->
<g id="edge9" class="edge">
<title>controller_patience&#45;&gt;Task_success_rate</title>
<path fill="none" stroke="blue" d="M932.94,-1452.12C999,-1518.71 1242.67,-1746 1491,-1746 1491,-1746 1491,-1746 1846.5,-1746 2144.25,-1746 2184.71,-1221.71 2190.16,-1092.51"/>
<polygon fill="blue" stroke="blue" points="2193.67,-1092.37 2190.55,-1082.24 2186.67,-1092.1 2193.67,-1092.37"/>
</g>
<!-- conservative_reset_dist -->
<g id="node4" class="node">
<title>conservative_reset_dist</title>
<text text-anchor="middle" x="92.5" y="-630.3" font-family="Times,serif" font-size="14.00">conservative_reset_dist</text>
</g>
<!-- conservative_reset_dist&#45;&gt;acc_lim_theta -->
<g id="edge49" class="edge">
<title>conservative_reset_dist&#45;&gt;acc_lim_theta</title>
<path fill="none" stroke="red" d="M110.93,-607.16C150.18,-546.74 245.11,-400.59 284.46,-340.01"/>
<polygon fill="red" stroke="red" points="107.82,-605.53 105.31,-615.82 113.69,-609.34 107.82,-605.53"/>
<polygon fill="red" stroke="red" points="287.55,-341.67 290.06,-331.38 281.68,-337.86 287.55,-341.67"/>
</g>
<!-- conservative_reset_dist&#45;&gt;acc_lim_trans -->
<g id="edge53" class="edge">
<title>conservative_reset_dist&#45;&gt;acc_lim_trans</title>
<path fill="none" stroke="red" d="M127.59,-657.94C152.33,-674.04 187.25,-694.23 221,-705 295.6,-728.8 385.82,-735.54 445.73,-737.13"/>
<polygon fill="red" stroke="red" points="129.22,-654.82 118.95,-652.22 125.36,-660.66 129.22,-654.82"/>
<polygon fill="red" stroke="red" points="445.73,-740.63 455.81,-737.36 445.89,-733.63 445.73,-740.63"/>
</g>
<!-- oscillation_reset_angle -->
<g id="node18" class="node">
<title>oscillation_reset_angle</title>
<text text-anchor="middle" x="914.5" y="-530.3" font-family="Times,serif" font-size="14.00">oscillation_reset_angle</text>
</g>
<!-- conservative_reset_dist&#45;&gt;oscillation_reset_angle -->
<g id="edge76" class="edge">
<title>conservative_reset_dist&#45;&gt;oscillation_reset_angle</title>
<path fill="none" stroke="red" d="M195.3,-619.34C304.96,-603.79 484.64,-579.04 640,-561 697.76,-554.29 762.51,-547.85 814.51,-542.95"/>
<polygon fill="red" stroke="red" points="194.65,-615.89 185.24,-620.77 195.63,-622.82 194.65,-615.89"/>
<polygon fill="red" stroke="red" points="815.1,-546.4 824.73,-541.98 814.45,-539.44 815.1,-546.4"/>
</g>
<!-- stop_time_buffer -->
<g id="node23" class="node">
<title>stop_time_buffer</title>
<text text-anchor="middle" x="1120.5" y="-666.3" font-family="Times,serif" font-size="14.00">stop_time_buffer</text>
</g>
<!-- conservative_reset_dist&#45;&gt;stop_time_buffer -->
<g id="edge113" class="edge">
<title>conservative_reset_dist&#45;&gt;stop_time_buffer</title>
<path fill="none" stroke="red" d="M195.04,-637.56C399.89,-644.75 858.69,-660.85 1041.83,-667.27"/>
<polygon fill="red" stroke="red" points="195.12,-634.06 185,-637.21 194.87,-641.06 195.12,-634.06"/>
<polygon fill="red" stroke="red" points="1041.8,-670.78 1051.92,-667.63 1042.05,-663.78 1041.8,-670.78"/>
</g>
<!-- transform_tolerance -->
<g id="node31" class="node">
<title>transform_tolerance</title>
<text text-anchor="middle" x="1120.5" y="-720.3" font-family="Times,serif" font-size="14.00">transform_tolerance</text>
</g>
<!-- conservative_reset_dist&#45;&gt;transform_tolerance -->
<g id="edge104" class="edge">
<title>conservative_reset_dist&#45;&gt;transform_tolerance</title>
<path fill="none" stroke="red" d="M195.43,-651.59C204.06,-652.84 212.68,-654 221,-655 515.86,-690.54 867.48,-711.31 1029.55,-719.68"/>
<polygon fill="red" stroke="red" points="195.7,-648.09 185.29,-650.09 194.67,-655.02 195.7,-648.09"/>
<polygon fill="red" stroke="red" points="1029.78,-723.19 1039.95,-720.21 1030.14,-716.2 1029.78,-723.19"/>
</g>
<!-- acc_lim_theta&#45;&gt;forward_point_distance -->
<g id="edge69" class="edge">
<title>acc_lim_theta&#45;&gt;forward_point_distance</title>
<path fill="none" stroke="red" d="M351.17,-335.51C385.07,-351.68 430.58,-373.39 464.46,-389.56"/>
<polygon fill="red" stroke="red" points="352.59,-332.31 342.06,-331.16 349.58,-338.62 352.59,-332.31"/>
<polygon fill="red" stroke="red" points="463.15,-392.81 473.68,-393.96 466.16,-386.49 463.15,-392.81"/>
</g>
<!-- acc_lim_theta&#45;&gt;max_vel_theta -->
<g id="edge100" class="edge">
<title>acc_lim_theta&#45;&gt;max_vel_theta</title>
<path fill="none" stroke="red" d="M304.7,-341.34C307.87,-416.9 325.3,-626.77 421,-764 520.47,-906.64 734.79,-958.11 844.99,-975.61"/>
<polygon fill="red" stroke="red" points="308.19,-341.05 304.33,-331.19 301.2,-341.31 308.19,-341.05"/>
<polygon fill="red" stroke="red" points="844.58,-979.09 855,-977.15 845.65,-972.17 844.58,-979.09"/>
</g>
<!-- acc_lim_theta&#45;&gt;max_vel_trans -->
<g id="edge87" class="edge">
<title>acc_lim_theta&#45;&gt;max_vel_trans</title>
<path fill="none" stroke="red" d="M369.95,-311.71C445.42,-310.24 568.44,-307.83 644.97,-306.34"/>
<polygon fill="red" stroke="red" points="369.58,-308.22 359.65,-311.91 369.72,-315.22 369.58,-308.22"/>
<polygon fill="red" stroke="red" points="645.06,-309.84 654.99,-306.14 644.92,-302.84 645.06,-309.84"/>
</g>
<!-- min_vel_theta -->
<g id="node14" class="node">
<title>min_vel_theta</title>
<text text-anchor="middle" x="914.5" y="-346.3" font-family="Times,serif" font-size="14.00">min_vel_theta</text>
</g>
<!-- acc_lim_theta&#45;&gt;min_vel_theta -->
<g id="edge114" class="edge">
<title>acc_lim_theta&#45;&gt;min_vel_theta</title>
<path fill="none" stroke="red" d="M369.83,-318.98C386.52,-320.4 404.41,-321.84 421,-323 572.86,-333.65 751.3,-342.53 846.18,-346.96"/>
<polygon fill="red" stroke="red" points="369.88,-315.47 359.62,-318.1 369.28,-322.45 369.88,-315.47"/>
<polygon fill="red" stroke="red" points="846.06,-350.46 856.21,-347.43 846.39,-343.47 846.06,-350.46"/>
</g>
<!-- vx_samples -->
<g id="node27" class="node">
<title>vx_samples</title>
<text text-anchor="middle" x="1310.5" y="-133.3" font-family="Times,serif" font-size="14.00">vx_samples</text>
</g>
<!-- acc_lim_theta&#45;&gt;vx_samples -->
<g id="edge70" class="edge">
<title>acc_lim_theta&#45;&gt;vx_samples</title>
<path fill="none" stroke="red" d="M311.3,-285.21C324.96,-238.64 358.75,-144.89 421,-93 525.78,-5.65 577.09,0 713.5,0 713.5,0 713.5,0 915.5,0 1052.38,0 1201.92,-74.68 1270.8,-113.77"/>
<polygon fill="red" stroke="red" points="307.91,-284.35 308.55,-294.92 314.64,-286.26 307.91,-284.35"/>
<polygon fill="red" stroke="red" points="1269.17,-116.87 1279.59,-118.81 1272.65,-110.79 1269.17,-116.87"/>
</g>
<!-- publish_frequency -->
<g id="node29" class="node">
<title>publish_frequency</title>
<text text-anchor="middle" x="1310.5" y="-525.3" font-family="Times,serif" font-size="14.00">publish_frequency</text>
</g>
<!-- acc_lim_theta&#45;&gt;publish_frequency -->
<g id="edge117" class="edge">
<title>acc_lim_theta&#45;&gt;publish_frequency</title>
<path fill="none" stroke="red" d="M316.57,-285.9C334.29,-251.35 370.22,-193.17 421,-169 654.96,-57.64 748.66,-124.98 1004,-169 1095.57,-184.78 1134.75,-173.84 1201,-239 1276.07,-312.83 1299.78,-443.46 1306.78,-500.74"/>
<polygon fill="red" stroke="red" points="313.37,-284.47 312.05,-294.98 319.64,-287.58 313.37,-284.47"/>
<polygon fill="red" stroke="red" points="1303.32,-501.33 1307.93,-510.87 1310.28,-500.54 1303.32,-501.33"/>
</g>
<!-- acc_lim_theta&#45;&gt;inflation_radius -->
<g id="edge42" class="edge">
<title>acc_lim_theta&#45;&gt;inflation_radius</title>
<path fill="none" stroke="red" d="M366.52,-291.85C489.77,-253.17 772.27,-179.56 1004,-231 1098.34,-251.94 1147.13,-242.78 1201,-323 1292.29,-458.94 1159.97,-914.5 1237,-1059 1243.41,-1071.03 1253.82,-1081.11 1264.77,-1089.19"/>
<polygon fill="red" stroke="red" points="365.33,-288.55 356.86,-294.91 367.45,-295.22 365.33,-288.55"/>
<polygon fill="red" stroke="red" points="1262.97,-1092.19 1273.2,-1094.97 1266.93,-1086.42 1262.97,-1092.19"/>
</g>
<!-- max_vel_x -->
<g id="node13" class="node">
<title>max_vel_x</title>
<text text-anchor="middle" x="714.5" y="-584.3" font-family="Times,serif" font-size="14.00">max_vel_x</text>
</g>
<!-- acc_lim_trans&#45;&gt;max_vel_x -->
<g id="edge77" class="edge">
<title>acc_lim_trans&#45;&gt;max_vel_x</title>
<path fill="none" stroke="red" d="M546.14,-712.68C583.23,-685.05 643.42,-640.21 680.61,-612.5"/>
<polygon fill="red" stroke="red" points="543.95,-709.95 538.02,-718.73 548.13,-715.56 543.95,-709.95"/>
<polygon fill="red" stroke="red" points="683.16,-614.97 689.09,-606.19 678.98,-609.35 683.16,-614.97"/>
</g>
<!-- acc_lim_trans&#45;&gt;min_vel_theta -->
<g id="edge119" class="edge">
<title>acc_lim_trans&#45;&gt;min_vel_theta</title>
<path fill="none" stroke="red" d="M529.43,-710C551.54,-673.79 594.03,-608.56 640,-561 715.37,-483.03 820.72,-409.93 876.1,-373.73"/>
<polygon fill="red" stroke="red" points="526.18,-708.61 524.01,-718.98 532.17,-712.23 526.18,-708.61"/>
<polygon fill="red" stroke="red" points="878.07,-376.62 884.54,-368.24 874.25,-370.75 878.07,-376.62"/>
</g>
<!-- acc_lim_trans&#45;&gt;vth_samples -->
<g id="edge85" class="edge">
<title>acc_lim_trans&#45;&gt;vth_samples</title>
<path fill="none" stroke="red" d="M530.07,-763.71C551.39,-795.69 591.53,-848.41 640,-876 773.46,-951.98 961.66,-946.83 1057.77,-937.79"/>
<polygon fill="red" stroke="red" points="532.96,-761.73 524.56,-755.27 527.1,-765.56 532.96,-761.73"/>
<polygon fill="red" stroke="red" points="1058.3,-941.25 1067.9,-936.78 1057.61,-934.28 1058.3,-941.25"/>
</g>
<!-- acc_lim_trans&#45;&gt;inflation_radius -->
<g id="edge46" class="edge">
<title>acc_lim_trans&#45;&gt;inflation_radius</title>
<path fill="none" stroke="red" d="M579.35,-751.09C587.79,-753.66 596.19,-756.62 604,-760 621.42,-767.55 622.44,-775.79 640,-783 669.48,-795.11 1178.28,-880.65 1201,-903 1251.72,-952.91 1198.08,-999.43 1237,-1059 1244.66,-1070.73 1255.79,-1080.84 1267.04,-1089.04"/>
<polygon fill="red" stroke="red" points="580.05,-747.65 569.47,-748.25 578.12,-754.37 580.05,-747.65"/>
<polygon fill="red" stroke="red" points="1265.39,-1092.15 1275.61,-1094.93 1269.36,-1086.38 1265.39,-1092.15"/>
</g>
<!-- acc_lim_x -->
<g id="node7" class="node">
<title>acc_lim_x</title>
<text text-anchor="middle" x="714.5" y="-752.3" font-family="Times,serif" font-size="14.00">acc_lim_x</text>
</g>
<!-- acc_lim_x&#45;&gt;max_vel_theta -->
<g id="edge44" class="edge">
<title>acc_lim_x&#45;&gt;max_vel_theta</title>
<path fill="none" stroke="red" d="M737.94,-781.84C776.09,-825.77 853.14,-914.5 891.2,-958.32"/>
<polygon fill="red" stroke="red" points="740.57,-779.53 731.37,-774.27 735.28,-784.12 740.57,-779.53"/>
<polygon fill="red" stroke="red" points="888.63,-960.7 897.83,-965.96 893.92,-956.11 888.63,-960.7"/>
</g>
<!-- acc_lim_x&#45;&gt;min_vel_theta -->
<g id="edge59" class="edge">
<title>acc_lim_x&#45;&gt;min_vel_theta</title>
<path fill="none" stroke="red" d="M732.4,-728.85C748.97,-701.16 773.88,-656.48 789,-615 814.26,-545.71 791.98,-518.95 825,-453 840.07,-422.9 865.85,-394.34 885.72,-374.97"/>
<polygon fill="red" stroke="red" points="729.31,-727.2 727.12,-737.56 735.3,-730.82 729.31,-727.2"/>
<polygon fill="red" stroke="red" points="888.19,-377.44 893,-368 883.36,-372.38 888.19,-377.44"/>
</g>
<!-- theta_stopped_vel -->
<g id="node24" class="node">
<title>theta_stopped_vel</title>
<text text-anchor="middle" x="914.5" y="-476.3" font-family="Times,serif" font-size="14.00">theta_stopped_vel</text>
</g>
<!-- acc_lim_x&#45;&gt;theta_stopped_vel -->
<g id="edge71" class="edge">
<title>acc_lim_x&#45;&gt;theta_stopped_vel</title>
<path fill="none" stroke="red" d="M749.33,-731.49C763.69,-719.37 779.3,-703.57 789,-686 828.2,-614.95 770.49,-567.11 825,-507 827.39,-504.36 830.03,-501.98 832.86,-499.82"/>
<polygon fill="red" stroke="red" points="747.09,-728.8 741.54,-737.83 751.5,-734.23 747.09,-728.8"/>
<polygon fill="red" stroke="red" points="834.81,-502.73 841.29,-494.34 831,-496.86 834.81,-502.73"/>
</g>
<!-- vy_samples -->
<g id="node28" class="node">
<title>vy_samples</title>
<text text-anchor="middle" x="1310.5" y="-666.3" font-family="Times,serif" font-size="14.00">vy_samples</text>
</g>
<!-- acc_lim_x&#45;&gt;vy_samples -->
<g id="edge78" class="edge">
<title>acc_lim_x&#45;&gt;vy_samples</title>
<path fill="none" stroke="red" d="M766.62,-759.45C874.47,-766.08 1121.9,-777.72 1201,-751 1233.98,-739.86 1265.11,-714.5 1285.49,-695.11"/>
<polygon fill="red" stroke="red" points="766.82,-755.95 756.63,-758.82 766.39,-762.94 766.82,-755.95"/>
<polygon fill="red" stroke="red" points="1288.05,-697.5 1292.76,-688.01 1283.16,-692.49 1288.05,-697.5"/>
</g>
<!-- resolution -->
<g id="node30" class="node">
<title>resolution</title>
<text text-anchor="middle" x="1310.5" y="-1028.3" font-family="Times,serif" font-size="14.00">resolution</text>
</g>
<!-- acc_lim_x&#45;&gt;resolution -->
<g id="edge62" class="edge">
<title>acc_lim_x&#45;&gt;resolution</title>
<path fill="none" stroke="red" d="M766.73,-763.18C876.51,-779.34 1130.23,-821 1201,-870 1249.97,-903.91 1282.88,-967.74 1298.67,-1004.34"/>
<polygon fill="red" stroke="red" points="766.96,-759.68 756.56,-761.7 765.95,-766.61 766.96,-759.68"/>
<polygon fill="red" stroke="red" points="1295.58,-1006.02 1302.67,-1013.89 1302.04,-1003.31 1295.58,-1006.02"/>
</g>
<!-- forward_point_distance&#45;&gt;max_vel_trans -->
<g id="edge101" class="edge">
<title>forward_point_distance&#45;&gt;max_vel_trans</title>
<path fill="none" stroke="red" d="M556.45,-389.02C590.17,-370.98 636.89,-345.98 670.6,-327.95"/>
<polygon fill="red" stroke="red" points="554.59,-386.05 547.43,-393.85 557.9,-392.22 554.59,-386.05"/>
<polygon fill="red" stroke="red" points="672.57,-330.86 679.74,-323.06 669.27,-324.69 672.57,-330.86"/>
</g>
<!-- forward_point_distance&#45;&gt;min_vel_theta -->
<g id="edge82" class="edge">
<title>forward_point_distance&#45;&gt;min_vel_theta</title>
<path fill="none" stroke="red" d="M614.42,-396.36C687.11,-385.09 783.17,-370.2 846.57,-360.37"/>
<polygon fill="red" stroke="red" points="613.61,-392.94 604.27,-397.93 614.68,-399.86 613.61,-392.94"/>
<polygon fill="red" stroke="red" points="847.11,-363.83 856.46,-358.84 846.04,-356.92 847.11,-363.83"/>
</g>
<!-- min_vel_trans -->
<g id="node15" class="node">
<title>min_vel_trans</title>
<text text-anchor="middle" x="914.5" y="-584.3" font-family="Times,serif" font-size="14.00">min_vel_trans</text>
</g>
<!-- forward_point_distance&#45;&gt;min_vel_trans -->
<g id="edge66" class="edge">
<title>forward_point_distance&#45;&gt;min_vel_trans</title>
<path fill="none" stroke="red" d="M555.9,-434.8C615.02,-466 726.1,-522.51 825,-561 831.9,-563.68 839.17,-566.28 846.48,-568.72"/>
<polygon fill="red" stroke="red" points="557.35,-431.6 546.87,-430.02 554.07,-437.79 557.35,-431.6"/>
<polygon fill="red" stroke="red" points="845.82,-572.19 856.41,-571.96 847.99,-565.53 845.82,-572.19"/>
</g>
<!-- forward_point_distance&#45;&gt;sim_granularity -->
<g id="edge91" class="edge">
<title>forward_point_distance&#45;&gt;sim_granularity</title>
<path fill="none" stroke="red" d="M614.48,-409.82C714.05,-406.5 870.29,-398.11 1004,-377 1017.67,-374.84 1032.12,-371.96 1046,-368.88"/>
<polygon fill="red" stroke="red" points="614.31,-406.33 604.43,-410.15 614.54,-413.32 614.31,-406.33"/>
<polygon fill="red" stroke="red" points="1047.01,-372.23 1055.98,-366.6 1045.46,-365.41 1047.01,-372.23"/>
</g>
<!-- forward_point_distance&#45;&gt;vth_samples -->
<g id="edge116" class="edge">
<title>forward_point_distance&#45;&gt;vth_samples</title>
<path fill="none" stroke="red" d="M521.47,-440.07C545.02,-522.23 614.23,-758.02 640,-783 700.31,-841.46 942.05,-895.29 1057.51,-918.27"/>
<polygon fill="red" stroke="red" points="524.82,-439.05 518.71,-430.4 518.09,-440.98 524.82,-439.05"/>
<polygon fill="red" stroke="red" points="1057.12,-921.76 1067.61,-920.27 1058.47,-914.9 1057.12,-921.76"/>
</g>
<!-- forward_point_distance&#45;&gt;vx_samples -->
<g id="edge93" class="edge">
<title>forward_point_distance&#45;&gt;vx_samples</title>
<path fill="none" stroke="red" d="M532.3,-385.47C554.78,-355.51 595.05,-307.16 640,-278 798.02,-175.5 854.37,-169.9 1040,-138 1111.91,-125.64 1196.22,-127.97 1251.14,-131.68"/>
<polygon fill="red" stroke="red" points="529.29,-383.64 526.17,-393.77 534.93,-387.8 529.29,-383.64"/>
<polygon fill="red" stroke="red" points="1251.15,-135.19 1261.38,-132.41 1251.65,-128.2 1251.15,-135.19"/>
</g>
<!-- max_scaling_factor -->
<g id="node10" class="node">
<title>max_scaling_factor</title>
<text text-anchor="middle" x="914.5" y="-1034.3" font-family="Times,serif" font-size="14.00">max_scaling_factor</text>
</g>
<!-- goal_distance_bias&#45;&gt;max_scaling_factor -->
<g id="edge75" class="edge">
<title>goal_distance_bias&#45;&gt;max_scaling_factor</title>
<path fill="none" stroke="red" d="M799.11,-1064.57C808.79,-1062.33 818.67,-1060.03 828.36,-1057.78"/>
<polygon fill="red" stroke="red" points="798.18,-1061.2 789.23,-1066.87 799.76,-1068.02 798.18,-1061.2"/>
<polygon fill="red" stroke="red" points="829.44,-1061.12 838.39,-1055.45 827.86,-1054.3 829.44,-1061.12"/>
</g>
<!-- goal_distance_bias&#45;&gt;min_vel_theta -->
<g id="edge99" class="edge">
<title>goal_distance_bias&#45;&gt;min_vel_theta</title>
<path fill="none" stroke="red" d="M723.59,-1056.2C738.65,-1003.4 771.09,-884.82 789,-783 814.55,-637.69 766.29,-588.35 825,-453 838.23,-422.51 863.73,-394.36 883.97,-375.22"/>
<polygon fill="red" stroke="red" points="720.21,-1055.28 720.81,-1065.85 726.94,-1057.21 720.21,-1055.28"/>
<polygon fill="red" stroke="red" points="886.45,-377.69 891.44,-368.34 881.71,-372.55 886.45,-377.69"/>
</g>
<!-- goal_distance_bias&#45;&gt;min_vel_trans -->
<g id="edge94" class="edge">
<title>goal_distance_bias&#45;&gt;min_vel_trans</title>
<path fill="none" stroke="red" d="M726.5,-1056.45C761.15,-969.65 867.81,-702.45 902.49,-615.59"/>
<polygon fill="red" stroke="red" points="723.24,-1055.17 722.78,-1065.76 729.74,-1057.77 723.24,-1055.17"/>
<polygon fill="red" stroke="red" points="905.8,-616.73 906.26,-606.14 899.3,-614.13 905.8,-616.73"/>
</g>
<!-- path_distance_bias -->
<g id="node19" class="node">
<title>path_distance_bias</title>
<text text-anchor="middle" x="914.5" y="-1316.3" font-family="Times,serif" font-size="14.00">path_distance_bias</text>
</g>
<!-- goal_distance_bias&#45;&gt;path_distance_bias -->
<g id="edge92" class="edge">
<title>goal_distance_bias&#45;&gt;path_distance_bias</title>
<path fill="none" stroke="red" d="M737.25,-1109.92C775.28,-1155.26 853.46,-1248.44 891.6,-1293.9"/>
<polygon fill="red" stroke="red" points="739.82,-1107.54 730.71,-1102.13 734.45,-1112.04 739.82,-1107.54"/>
<polygon fill="red" stroke="red" points="889.13,-1296.4 898.24,-1301.81 894.49,-1291.9 889.13,-1296.4"/>
</g>
<!-- trans_stopped_vel -->
<g id="node25" class="node">
<title>trans_stopped_vel</title>
<text text-anchor="middle" x="1120.5" y="-1034.3" font-family="Times,serif" font-size="14.00">trans_stopped_vel</text>
</g>
<!-- goal_distance_bias&#45;&gt;trans_stopped_vel -->
<g id="edge61" class="edge">
<title>goal_distance_bias&#45;&gt;trans_stopped_vel</title>
<path fill="none" stroke="red" d="M799.25,-1082.11C857.04,-1079.92 935.5,-1075.19 1004,-1065 1015.86,-1063.24 1028.29,-1060.88 1040.43,-1058.29"/>
<polygon fill="red" stroke="red" points="798.94,-1078.62 789.07,-1082.47 799.19,-1085.61 798.94,-1078.62"/>
<polygon fill="red" stroke="red" points="1041.52,-1061.63 1050.53,-1056.07 1040.02,-1054.8 1041.52,-1061.63"/>
</g>
<!-- goal_distance_bias&#45;&gt;inflation_radius -->
<g id="edge109" class="edge">
<title>goal_distance_bias&#45;&gt;inflation_radius</title>
<path fill="none" stroke="red" d="M799.5,-1088.1C916.19,-1093.8 1125.47,-1104.02 1236.18,-1109.42"/>
<polygon fill="red" stroke="red" points="799.39,-1084.59 789.23,-1087.6 799.05,-1091.58 799.39,-1084.59"/>
<polygon fill="red" stroke="red" points="1236.1,-1112.92 1246.26,-1109.91 1236.44,-1105.93 1236.1,-1112.92"/>
</g>
<!-- occdist_scale -->
<g id="node17" class="node">
<title>occdist_scale</title>
<text text-anchor="middle" x="1120.5" y="-980.3" font-family="Times,serif" font-size="14.00">occdist_scale</text>
</g>
<!-- max_scaling_factor&#45;&gt;occdist_scale -->
<g id="edge50" class="edge">
<title>max_scaling_factor&#45;&gt;occdist_scale</title>
<path fill="none" stroke="red" d="M993.48,-1017.36C1013.96,-1011.94 1035.81,-1006.15 1055.46,-1000.95"/>
<polygon fill="red" stroke="red" points="992.48,-1014 983.71,-1019.94 994.28,-1020.77 992.48,-1014"/>
<polygon fill="red" stroke="red" points="1056.44,-1004.31 1065.22,-998.37 1054.65,-997.54 1056.44,-1004.31"/>
</g>
<!-- max_scaling_factor&#45;&gt;sim_granularity -->
<g id="edge90" class="edge">
<title>max_scaling_factor&#45;&gt;sim_granularity</title>
<path fill="none" stroke="red" d="M999.05,-1016.23C1000.82,-1014.61 1002.47,-1012.87 1004,-1011 1056.06,-947.42 1025.19,-723.82 1040,-643 1058.13,-544.05 1093.41,-429.79 1110.2,-378.04"/>
<polygon fill="red" stroke="red" points="996.53,-1013.76 990.72,-1022.63 1000.79,-1019.32 996.53,-1013.76"/>
<polygon fill="red" stroke="red" points="1113.61,-378.86 1113.39,-368.27 1106.96,-376.68 1113.61,-378.86"/>
</g>
<!-- max_scaling_factor&#45;&gt;trans_stopped_vel -->
<g id="edge115" class="edge">
<title>max_scaling_factor&#45;&gt;trans_stopped_vel</title>
<path fill="none" stroke="red" d="M1000.68,-1038C1012.79,-1038 1025.22,-1038 1037.27,-1038"/>
<polygon fill="red" stroke="red" points="1000.59,-1034.5 990.59,-1038 1000.59,-1041.5 1000.59,-1034.5"/>
<polygon fill="red" stroke="red" points="1037.28,-1041.5 1047.28,-1038 1037.28,-1034.5 1037.28,-1041.5"/>
</g>
<!-- max_scaling_factor&#45;&gt;vth_samples -->
<g id="edge111" class="edge">
<title>max_scaling_factor&#45;&gt;vth_samples</title>
<path fill="none" stroke="red" d="M998.31,-1014.89C1000.27,-1013.66 1002.17,-1012.36 1004,-1011 1027.15,-993.79 1017.13,-974.57 1040,-957 1045.51,-952.76 1051.73,-949.17 1058.2,-946.12"/>
<polygon fill="red" stroke="red" points="996.42,-1011.94 989.4,-1019.88 999.84,-1018.04 996.42,-1011.94"/>
<polygon fill="red" stroke="red" points="1059.97,-949.17 1067.81,-942.04 1057.24,-942.73 1059.97,-949.17"/>
</g>
<!-- max_scaling_factor&#45;&gt;transform_tolerance -->
<g id="edge105" class="edge">
<title>max_scaling_factor&#45;&gt;transform_tolerance</title>
<path fill="none" stroke="red" d="M999.39,-1015.07C1000.99,-1013.78 1002.53,-1012.43 1004,-1011 1040.23,-975.68 1021.71,-950.18 1040,-903 1061.23,-848.23 1090.01,-785.86 1106.48,-751.1"/>
<polygon fill="red" stroke="red" points="997.16,-1012.35 990.91,-1020.9 1001.13,-1018.12 997.16,-1012.35"/>
<polygon fill="red" stroke="red" points="1109.65,-752.59 1110.79,-742.05 1103.33,-749.58 1109.65,-752.59"/>
</g>
<!-- max_vel_theta&#45;&gt;vth_samples -->
<g id="edge106" class="edge">
<title>max_vel_theta&#45;&gt;vth_samples</title>
<path fill="none" stroke="red" d="M984.12,-965.84C1008.04,-959.5 1034.71,-952.45 1058.01,-946.28"/>
<polygon fill="red" stroke="red" points="983,-962.51 974.23,-968.45 984.79,-969.28 983,-962.51"/>
<polygon fill="red" stroke="red" points="1059,-949.64 1067.77,-943.69 1057.21,-942.87 1059,-949.64"/>
</g>
<!-- max_vel_trans&#45;&gt;oscillation_reset_angle -->
<g id="edge84" class="edge">
<title>max_vel_trans&#45;&gt;oscillation_reset_angle</title>
<path fill="none" stroke="red" d="M728.86,-332.33C754.63,-384.61 809.99,-494.73 825,-507 826.54,-508.26 828.14,-509.46 829.78,-510.6"/>
<polygon fill="red" stroke="red" points="731.96,-330.7 724.41,-323.27 725.68,-333.79 731.96,-330.7"/>
<polygon fill="red" stroke="red" points="828.02,-513.63 838.38,-515.87 831.68,-507.66 828.02,-513.63"/>
</g>
<!-- max_vel_trans&#45;&gt;theta_stopped_vel -->
<g id="edge64" class="edge">
<title>max_vel_trans&#45;&gt;theta_stopped_vel</title>
<path fill="none" stroke="red" d="M743.54,-329.78C781.16,-363.03 847.58,-421.73 885.28,-455.06"/>
<polygon fill="red" stroke="red" points="745.75,-327.07 735.94,-323.07 741.12,-332.31 745.75,-327.07"/>
<polygon fill="red" stroke="red" points="883.06,-457.77 892.87,-461.77 887.7,-452.52 883.06,-457.77"/>
</g>
<!-- max_vel_trans&#45;&gt;publish_frequency -->
<g id="edge57" class="edge">
<title>max_vel_trans&#45;&gt;publish_frequency</title>
<path fill="none" stroke="red" d="M773.29,-283.74C870.32,-252 1068.38,-204.56 1201,-290 1274.65,-337.45 1298.87,-448.42 1306.37,-500.75"/>
<polygon fill="red" stroke="red" points="772.04,-280.47 763.66,-286.95 774.25,-287.11 772.04,-280.47"/>
<polygon fill="red" stroke="red" points="1302.9,-501.24 1307.69,-510.69 1309.84,-500.31 1302.9,-501.24"/>
</g>
<!-- max_vel_trans&#45;&gt;resolution -->
<g id="edge54" class="edge">
<title>max_vel_trans&#45;&gt;resolution</title>
<path fill="none" stroke="red" d="M784.57,-296.96C904.21,-284.69 1142.78,-268.11 1201,-323 1261.75,-380.28 1224.15,-614.5 1237,-697 1254.94,-812.13 1287.85,-947.13 1302.34,-1004.25"/>
<polygon fill="red" stroke="red" points="784.01,-293.5 774.42,-298.02 784.73,-300.46 784.01,-293.5"/>
<polygon fill="red" stroke="red" points="1298.96,-1005.16 1304.82,-1013.98 1305.74,-1003.43 1298.96,-1005.16"/>
</g>
<!-- max_vel_x&#45;&gt;stop_time_buffer -->
<g id="edge81" class="edge">
<title>max_vel_x&#45;&gt;stop_time_buffer</title>
<path fill="none" stroke="red" d="M769.22,-601.89C786.93,-606.3 806.76,-611.05 825,-615 898.16,-630.84 982.14,-646.25 1041.66,-656.71"/>
<polygon fill="red" stroke="red" points="769.61,-598.38 759.06,-599.35 767.91,-605.17 769.61,-598.38"/>
<polygon fill="red" stroke="red" points="1041.28,-660.2 1051.73,-658.48 1042.48,-653.3 1041.28,-660.2"/>
</g>
<!-- max_vel_x&#45;&gt;theta_stopped_vel -->
<g id="edge102" class="edge">
<title>max_vel_x&#45;&gt;theta_stopped_vel</title>
<path fill="none" stroke="red" d="M743.12,-563.39C764.27,-545.62 794.85,-522.18 825,-507 828.53,-505.22 832.2,-503.54 835.95,-501.94"/>
<polygon fill="red" stroke="red" points="740.84,-560.74 735.5,-569.89 745.38,-566.06 740.84,-560.74"/>
<polygon fill="red" stroke="red" points="837.41,-505.13 845.4,-498.16 834.82,-498.63 837.41,-505.13"/>
</g>
<!-- min_vel_theta&#45;&gt;sim_granularity -->
<g id="edge65" class="edge">
<title>min_vel_theta&#45;&gt;sim_granularity</title>
<path fill="none" stroke="red" d="M982.85,-350C1002.99,-350 1025.18,-350 1045.71,-350"/>
<polygon fill="red" stroke="red" points="982.6,-346.5 972.6,-350 982.6,-353.5 982.6,-346.5"/>
<polygon fill="red" stroke="red" points="1045.96,-353.5 1055.96,-350 1045.96,-346.5 1045.96,-353.5"/>
</g>
<!-- min_vel_theta&#45;&gt;Obstacle_distance -->
<g id="edge17" class="edge">
<title>min_vel_theta&#45;&gt;Obstacle_distance</title>
<path fill="none" stroke="blue" d="M972.52,-332.19C1031.04,-316.77 1124.15,-300.21 1201,-323 1385.49,-377.7 1466.81,-392.91 1564,-559 1626.64,-666.05 1546.55,-1004.07 1600,-1116 1608.67,-1134.17 1624.35,-1149.86 1639.22,-1161.75"/>
<polygon fill="blue" stroke="blue" points="1637.27,-1164.67 1647.35,-1167.96 1641.52,-1159.11 1637.27,-1164.67"/>
</g>
<!-- min_vel_theta&#45;&gt;Energy -->
<g id="edge5" class="edge">
<title>min_vel_theta&#45;&gt;Energy</title>
<path fill="none" stroke="blue" d="M957.55,-332C981.28,-322.82 1011.75,-312.64 1040,-308 1273.33,-269.7 1423.85,-209.56 1564,-400 1644.09,-508.83 1530.59,-891.06 1600,-1007 1680.66,-1141.72 1799.75,-1071.98 1901,-1192 1963.38,-1265.95 1992.98,-1380.54 2003.85,-1433.03"/>
<polygon fill="blue" stroke="blue" points="2000.44,-1433.83 2005.83,-1442.95 2007.31,-1432.46 2000.44,-1433.83"/>
</g>
<!-- min_vel_theta&#45;&gt;Task_success_rate -->
<g id="edge13" class="edge">
<title>min_vel_theta&#45;&gt;Task_success_rate</title>
<path fill="none" stroke="blue" d="M926.11,-331.88C966.62,-265.29 1118.85,-38 1309.5,-38 1309.5,-38 1309.5,-38 1846.5,-38 2042.79,-38 2013.03,-227.6 2083,-411 2170.68,-640.8 2187.24,-942.83 2190.31,-1035.65"/>
<polygon fill="blue" stroke="blue" points="2186.82,-1036.03 2190.63,-1045.92 2193.82,-1035.82 2186.82,-1036.03"/>
</g>
<!-- min_vel_trans&#45;&gt;transform_tolerance -->
<g id="edge56" class="edge">
<title>min_vel_trans&#45;&gt;transform_tolerance</title>
<path fill="none" stroke="red" d="M939.02,-613.76C962.52,-638.16 1000.71,-674.33 1040,-697 1042.84,-698.64 1045.8,-700.2 1048.82,-701.68"/>
<polygon fill="red" stroke="red" points="941.35,-611.13 931.93,-606.29 936.27,-615.95 941.35,-611.13"/>
<polygon fill="red" stroke="red" points="1047.53,-704.94 1058.09,-705.89 1050.43,-698.56 1047.53,-704.94"/>
</g>
<!-- min_vel_trans&#45;&gt;update_frequency -->
<g id="edge95" class="edge">
<title>min_vel_trans&#45;&gt;update_frequency</title>
<path fill="none" stroke="red" d="M982.77,-587.77C1088.95,-587.4 1295.07,-586.68 1409.49,-586.28"/>
<polygon fill="red" stroke="red" points="982.51,-584.27 972.52,-587.8 982.53,-591.27 982.51,-584.27"/>
<polygon fill="red" stroke="red" points="1409.61,-589.78 1419.6,-586.25 1409.58,-582.78 1409.61,-589.78"/>
</g>
<!-- min_vel_trans&#45;&gt;Planner_failed -->
<g id="edge14" class="edge">
<title>min_vel_trans&#45;&gt;Planner_failed</title>
<path fill="none" stroke="blue" d="M972.86,-594.31C1097.08,-608.02 1380.18,-639.61 1384,-643 1447.52,-699.4 1479.48,-971.57 1488.37,-1060.69"/>
<polygon fill="blue" stroke="blue" points="1484.91,-1061.24 1489.36,-1070.85 1491.87,-1060.56 1484.91,-1061.24"/>
</g>
<!-- min_vel_x -->
<g id="node16" class="node">
<title>min_vel_x</title>
<text text-anchor="middle" x="914.5" y="-1674.3" font-family="Times,serif" font-size="14.00">min_vel_x</text>
</g>
<!-- sim_time -->
<g id="node22" class="node">
<title>sim_time</title>
<text text-anchor="middle" x="1120.5" y="-1316.3" font-family="Times,serif" font-size="14.00">sim_time</text>
</g>
<!-- min_vel_x&#45;&gt;sim_time -->
<g id="edge10" class="edge">
<title>min_vel_x&#45;&gt;sim_time</title>
<path fill="none" stroke="blue" d="M925.9,-1659.75C959.32,-1601.1 1064.14,-1417.15 1103.95,-1347.28"/>
<polygon fill="blue" stroke="blue" points="1107.21,-1348.63 1109.12,-1338.21 1101.13,-1345.16 1107.21,-1348.63"/>
</g>
<!-- min_vel_x&#45;&gt;Obstacle_distance -->
<g id="edge27" class="edge">
<title>min_vel_x&#45;&gt;Obstacle_distance</title>
<path fill="none" stroke="blue" d="M957.67,-1665.59C1086.33,-1627.05 1470.72,-1506.71 1564,-1418 1624.99,-1360 1656.84,-1261.9 1669.43,-1214"/>
<polygon fill="blue" stroke="blue" points="1672.82,-1214.86 1671.89,-1204.3 1666.04,-1213.13 1672.82,-1214.86"/>
</g>
<!-- min_vel_x&#45;&gt;Energy -->
<g id="edge11" class="edge">
<title>min_vel_x&#45;&gt;Energy</title>
<path fill="none" stroke="blue" d="M957.77,-1676.58C1029.9,-1674.28 1181.39,-1670 1309.5,-1670 1309.5,-1670 1309.5,-1670 1493,-1670 1676.42,-1670 1744.06,-1702.93 1901,-1608 1947.86,-1579.66 1980.69,-1522.53 1997.07,-1488.44"/>
<polygon fill="blue" stroke="blue" points="2000.38,-1489.61 2001.43,-1479.06 1994.04,-1486.65 2000.38,-1489.61"/>
</g>
<!-- min_vel_x&#45;&gt;Task_success_rate -->
<g id="edge26" class="edge">
<title>min_vel_x&#45;&gt;Task_success_rate</title>
<path fill="none" stroke="blue" d="M957.61,-1691.21C1052.03,-1719.63 1288.32,-1784 1491,-1784 1491,-1784 1491,-1784 1846.5,-1784 1902.61,-1784 2008.52,-1768.07 2083,-1668 2152.65,-1574.43 2182.17,-1198.93 2189.25,-1092.34"/>
<polygon fill="blue" stroke="blue" points="2192.76,-1092.27 2189.92,-1082.06 2185.78,-1091.81 2192.76,-1092.27"/>
</g>
<!-- occdist_scale&#45;&gt;resolution -->
<g id="edge68" class="edge">
<title>occdist_scale&#45;&gt;resolution</title>
<path fill="none" stroke="red" d="M1185.57,-1000.36C1208.51,-1006.22 1234.11,-1012.75 1256.05,-1018.35"/>
<polygon fill="red" stroke="red" points="1186.18,-996.9 1175.63,-997.82 1184.45,-1003.68 1186.18,-996.9"/>
<polygon fill="red" stroke="red" points="1255.3,-1021.77 1265.86,-1020.86 1257.03,-1014.99 1255.3,-1021.77"/>
</g>
<!-- oscillation_reset_angle&#45;&gt;stop_time_buffer -->
<g id="edge96" class="edge">
<title>oscillation_reset_angle&#45;&gt;stop_time_buffer</title>
<path fill="none" stroke="red" d="M995.16,-556.31C998.19,-557.78 1001.15,-559.35 1004,-561 1041.7,-582.9 1076.89,-619.33 1098.29,-643.99"/>
<polygon fill="red" stroke="red" points="996.42,-553.04 985.87,-552.14 993.56,-559.43 996.42,-553.04"/>
<polygon fill="red" stroke="red" points="1095.85,-646.52 1105,-651.86 1101.18,-641.98 1095.85,-646.52"/>
</g>
<!-- oscillation_reset_angle&#45;&gt;trans_stopped_vel -->
<g id="edge97" class="edge">
<title>oscillation_reset_angle&#45;&gt;trans_stopped_vel</title>
<path fill="none" stroke="red" d="M1002.16,-558.84C1002.79,-559.54 1003.41,-560.26 1004,-561 1066.87,-639.18 978.36,-931.85 1040,-1011 1040.49,-1011.63 1040.99,-1012.24 1041.51,-1012.83"/>
<polygon fill="red" stroke="red" points="1004.47,-556.21 994.73,-552.05 999.75,-561.38 1004.47,-556.21"/>
<polygon fill="red" stroke="red" points="1039.27,-1015.53 1048.96,-1019.83 1044.06,-1010.43 1039.27,-1015.53"/>
</g>
<!-- oscillation_reset_angle&#45;&gt;vy_samples -->
<g id="edge45" class="edge">
<title>oscillation_reset_angle&#45;&gt;vy_samples</title>
<path fill="none" stroke="red" d="M985.78,-555.11C991.95,-557.07 998.09,-559.05 1004,-561 1090.91,-589.74 1190.62,-625.93 1251.84,-648.52"/>
<polygon fill="red" stroke="red" points="986.67,-551.72 976.08,-552.07 984.57,-558.4 986.67,-551.72"/>
<polygon fill="red" stroke="red" points="1250.73,-651.84 1261.33,-652.03 1253.16,-645.28 1250.73,-651.84"/>
</g>
<!-- oscillation_reset_angle&#45;&gt;publish_frequency -->
<g id="edge118" class="edge">
<title>oscillation_reset_angle&#45;&gt;publish_frequency</title>
<path fill="none" stroke="red" d="M1014.44,-532.74C1079.89,-531.91 1164.72,-530.84 1226.61,-530.05"/>
<polygon fill="red" stroke="red" points="1014.37,-529.24 1004.41,-532.87 1014.46,-536.24 1014.37,-529.24"/>
<polygon fill="red" stroke="red" points="1226.77,-533.55 1236.73,-529.92 1226.68,-526.55 1226.77,-533.55"/>
</g>
<!-- path_distance_bias&#45;&gt;sim_time -->
<g id="edge112" class="edge">
<title>path_distance_bias&#45;&gt;sim_time</title>
<path fill="none" stroke="red" d="M1000.62,-1320C1024.1,-1320 1048.81,-1320 1069.58,-1320"/>
<polygon fill="red" stroke="red" points="1000.59,-1316.5 990.59,-1320 1000.59,-1323.5 1000.59,-1316.5"/>
<polygon fill="red" stroke="red" points="1069.75,-1323.5 1079.75,-1320 1069.75,-1316.5 1069.75,-1323.5"/>
</g>
<!-- path_distance_bias&#45;&gt;trans_stopped_vel -->
<g id="edge107" class="edge">
<title>path_distance_bias&#45;&gt;trans_stopped_vel</title>
<path fill="none" stroke="red" d="M922.36,-1291.92C936.18,-1240.98 972,-1132.81 1040,-1070 1043.5,-1066.76 1047.38,-1063.84 1051.47,-1061.19"/>
<polygon fill="red" stroke="red" points="918.9,-1291.33 919.74,-1301.89 925.67,-1293.1 918.9,-1291.33"/>
<polygon fill="red" stroke="red" points="1053.26,-1064.2 1060.14,-1056.15 1049.74,-1058.15 1053.26,-1064.2"/>
</g>
<!-- path_distance_bias&#45;&gt;publish_frequency -->
<g id="edge67" class="edge">
<title>path_distance_bias&#45;&gt;publish_frequency</title>
<path fill="none" stroke="red" d="M957.73,-1296.7C1022.96,-1258.13 1146.38,-1174.3 1201,-1065 1285.15,-896.62 1176.76,-821.34 1237,-643 1248.12,-610.09 1270.63,-577.11 1287.64,-555.15"/>
<polygon fill="red" stroke="red" points="955.8,-1293.77 948.93,-1301.84 959.33,-1299.82 955.8,-1293.77"/>
<polygon fill="red" stroke="red" points="1290.39,-557.31 1293.85,-547.3 1284.9,-552.97 1290.39,-557.31"/>
</g>
<!-- Positional_error -->
<g id="node37" class="node">
<title>Positional_error</title>
<text text-anchor="middle" x="1677" y="-976.3" font-family="Times,serif" font-size="14.00">Positional_error</text>
</g>
<!-- path_distance_bias&#45;&gt;Positional_error -->
<g id="edge30" class="edge">
<title>path_distance_bias&#45;&gt;Positional_error</title>
<path fill="none" stroke="blue" d="M977.64,-1338.01C1071.86,-1361.58 1253.68,-1392.22 1384,-1322 1524.19,-1246.46 1626.35,-1074.19 1662.09,-1007.28"/>
<polygon fill="blue" stroke="blue" points="1665.31,-1008.67 1666.88,-998.2 1659.12,-1005.41 1665.31,-1008.67"/>
</g>
<!-- path_distance_bias&#45;&gt;Energy -->
<g id="edge24" class="edge">
<title>path_distance_bias&#45;&gt;Energy</title>
<path fill="none" stroke="blue" d="M950.74,-1338.12C975.15,-1349.81 1008.74,-1364.23 1040,-1372 1389.13,-1458.78 1827.93,-1462.77 1965.63,-1461.66"/>
<polygon fill="blue" stroke="blue" points="1965.81,-1465.16 1975.77,-1461.56 1965.74,-1458.16 1965.81,-1465.16"/>
</g>
<!-- path_distance_bias&#45;&gt;Task_success_rate -->
<g id="edge36" class="edge">
<title>path_distance_bias&#45;&gt;Task_success_rate</title>
<path fill="none" stroke="blue" d="M940.29,-1338.02C1051.91,-1416.87 1518.99,-1722.6 1901,-1608 1993.8,-1580.16 2026.81,-1566.93 2083,-1488 2173.51,-1360.86 2188.3,-1164.7 2190.62,-1092.19"/>
<polygon fill="blue" stroke="blue" points="2194.12,-1092.12 2190.88,-1082.03 2187.12,-1091.93 2194.12,-1092.12"/>
</g>
<!-- scaling_speed -->
<g id="node20" class="node">
<title>scaling_speed</title>
<text text-anchor="middle" x="92.5" y="-1544.3" font-family="Times,serif" font-size="14.00">scaling_speed</text>
</g>
<!-- scaling_speed&#45;&gt;controller_frequency -->
<g id="edge23" class="edge">
<title>scaling_speed&#45;&gt;controller_frequency</title>
<path fill="none" stroke="blue" d="M102.59,-1529.81C135.52,-1463.97 248.63,-1237.75 288.2,-1158.61"/>
<polygon fill="blue" stroke="blue" points="291.52,-1159.79 292.86,-1149.28 285.26,-1156.66 291.52,-1159.79"/>
</g>
<!-- scaling_speed&#45;&gt;inflation_radius -->
<g id="edge15" class="edge">
<title>scaling_speed&#45;&gt;inflation_radius</title>
<path fill="none" stroke="blue" d="M145.72,-1529.92C336.19,-1463.92 993.17,-1235.78 1201,-1157 1219.28,-1150.07 1239.14,-1142.14 1256.82,-1134.93"/>
<polygon fill="blue" stroke="blue" points="1258.46,-1138.04 1266.39,-1131.01 1255.8,-1131.56 1258.46,-1138.04"/>
</g>
<!-- scaling_speed&#45;&gt;Energy -->
<g id="edge16" class="edge">
<title>scaling_speed&#45;&gt;Energy</title>
<path fill="none" stroke="blue" d="M150.54,-1562.12C162.17,-1565.75 174.15,-1570.05 185,-1575 341.74,-1646.54 339.2,-1784 511.5,-1784 511.5,-1784 511.5,-1784 915.5,-1784 1173.5,-1784 1233,-1708 1491,-1708 1491,-1708 1491,-1708 1678,-1708 1780.75,-1708 1821.19,-1711.72 1901,-1647 1928.17,-1624.96 1919.76,-1607.44 1937,-1577 1954.63,-1545.86 1976.51,-1511.11 1991.49,-1487.84"/>
<polygon fill="blue" stroke="blue" points="1994.58,-1489.51 1997.06,-1479.21 1988.7,-1485.71 1994.58,-1489.51"/>
</g>
<!-- scaling_speed&#45;&gt;Task_success_rate -->
<g id="edge28" class="edge">
<title>scaling_speed&#45;&gt;Task_success_rate</title>
<path fill="none" stroke="blue" d="M150.78,-1555.8C163.31,-1559.82 175.61,-1565.88 185,-1575 221.9,-1610.84 187.79,-1645.72 221,-1685 313.16,-1794.01 368.75,-1822 511.5,-1822 511.5,-1822 511.5,-1822 1846.5,-1822 1958.81,-1822 2011.91,-1819.94 2083,-1733 2165.34,-1632.31 2186.01,-1206.46 2190.12,-1092.27"/>
<polygon fill="blue" stroke="blue" points="2193.62,-1092.33 2190.46,-1082.21 2186.62,-1092.09 2193.62,-1092.33"/>
</g>
<!-- sim_time&#45;&gt;publish_frequency -->
<g id="edge47" class="edge">
<title>sim_time&#45;&gt;publish_frequency</title>
<path fill="none" stroke="red" d="M1134.09,-1292.39C1152.29,-1251.08 1185.48,-1170.29 1201,-1098 1243.57,-899.66 1172.67,-835.38 1237,-643 1248.01,-610.06 1270.55,-577.08 1287.58,-555.13"/>
<polygon fill="red" stroke="red" points="1130.78,-1291.22 1129.91,-1301.78 1137.17,-1294.06 1130.78,-1291.22"/>
<polygon fill="red" stroke="red" points="1290.34,-557.3 1293.81,-547.29 1284.85,-552.95 1290.34,-557.3"/>
</g>
<!-- sim_time&#45;&gt;Planner_failed -->
<g id="edge12" class="edge">
<title>sim_time&#45;&gt;Planner_failed</title>
<path fill="none" stroke="blue" d="M1161.43,-1325.79C1216.54,-1331.58 1316.71,-1333.97 1384,-1288 1443.97,-1247.03 1473.16,-1161.22 1484.73,-1116.87"/>
<polygon fill="blue" stroke="blue" points="1488.16,-1117.6 1487.18,-1107.05 1481.36,-1115.9 1488.16,-1117.6"/>
</g>
<!-- stop_time_buffer&#45;&gt;vy_samples -->
<g id="edge48" class="edge">
<title>stop_time_buffer&#45;&gt;vy_samples</title>
<path fill="none" stroke="red" d="M1199.32,-670C1216.56,-670 1234.55,-670 1250.87,-670"/>
<polygon fill="red" stroke="red" points="1199.11,-666.5 1189.11,-670 1199.11,-673.5 1199.11,-666.5"/>
<polygon fill="red" stroke="red" points="1251.33,-673.5 1261.33,-670 1251.33,-666.5 1251.33,-673.5"/>
</g>
<!-- theta_stopped_vel&#45;&gt;transform_tolerance -->
<g id="edge55" class="edge">
<title>theta_stopped_vel&#45;&gt;transform_tolerance</title>
<path fill="none" stroke="red" d="M996.17,-499.79C998.99,-501.95 1001.62,-504.35 1004,-507 1061.38,-570.99 983.63,-632.12 1040,-697 1040.74,-697.85 1041.51,-698.68 1042.3,-699.48"/>
<polygon fill="red" stroke="red" points="998.05,-496.84 987.77,-494.29 994.22,-502.7 998.05,-496.84"/>
<polygon fill="red" stroke="red" points="1040.17,-702.26 1050.08,-706 1044.67,-696.89 1040.17,-702.26"/>
</g>
<!-- theta_stopped_vel&#45;&gt;Positional_error -->
<g id="edge39" class="edge">
<title>theta_stopped_vel&#45;&gt;Positional_error</title>
<path fill="none" stroke="blue" d="M987.63,-465.05C1004.72,-462.12 1022.94,-459.5 1040,-458 1156.59,-447.78 1488.75,-421.36 1564,-511 1627.36,-586.48 1539.94,-874.87 1600,-953 1601.25,-954.62 1602.6,-956.15 1604.04,-957.58"/>
<polygon fill="blue" stroke="blue" points="1601.97,-960.41 1611.93,-964.02 1606.4,-954.99 1601.97,-960.41"/>
</g>
<!-- theta_stopped_vel&#45;&gt;Energy -->
<g id="edge31" class="edge">
<title>theta_stopped_vel&#45;&gt;Energy</title>
<path fill="none" stroke="blue" d="M987.58,-476.78C1141.6,-471.69 1494.47,-470.2 1564,-559 1640.47,-656.66 1521.86,-1019.67 1600,-1116 1644.77,-1171.19 1691.88,-1124.49 1754,-1159 1772.97,-1169.54 1773.41,-1178.01 1790,-1192 1837.71,-1232.23 1859.74,-1231.18 1901,-1278 1944.21,-1327.03 1979.34,-1395.85 1996.88,-1433.58"/>
<polygon fill="blue" stroke="blue" points="1993.81,-1435.28 2001.15,-1442.91 2000.17,-1432.36 1993.81,-1435.28"/>
</g>
<!-- theta_stopped_vel&#45;&gt;Task_success_rate -->
<g id="edge41" class="edge">
<title>theta_stopped_vel&#45;&gt;Task_success_rate</title>
<path fill="none" stroke="blue" d="M966.39,-461.98C1040.76,-437.3 1183.96,-396 1309.5,-396 1309.5,-396 1309.5,-396 1846.5,-396 2139.07,-396 2183.42,-908.42 2189.92,-1035.66"/>
<polygon fill="blue" stroke="blue" points="2186.43,-1035.96 2190.39,-1045.79 2193.42,-1035.63 2186.43,-1035.96"/>
</g>
<!-- trans_stopped_vel&#45;&gt;vx_samples -->
<g id="edge108" class="edge">
<title>trans_stopped_vel&#45;&gt;vx_samples</title>
<path fill="none" stroke="red" d="M1199.5,-1012.84C1200.02,-1012.24 1200.52,-1011.63 1201,-1011 1235.63,-966.11 1229.46,-558.19 1237,-502 1254.02,-375.15 1288.11,-226.05 1302.66,-165.1"/>
<polygon fill="red" stroke="red" points="1196.94,-1010.44 1192.08,-1019.86 1201.75,-1015.53 1196.94,-1010.44"/>
<polygon fill="red" stroke="red" points="1306.13,-165.64 1305.07,-155.09 1299.33,-164 1306.13,-165.64"/>
</g>
<!-- trans_stopped_vel&#45;&gt;resolution -->
<g id="edge80" class="edge">
<title>trans_stopped_vel&#45;&gt;resolution</title>
<path fill="none" stroke="red" d="M1203.73,-1035.38C1221.27,-1034.82 1239.36,-1034.24 1255.52,-1033.72"/>
<polygon fill="red" stroke="red" points="1203.53,-1031.88 1193.65,-1035.7 1203.75,-1038.88 1203.53,-1031.88"/>
<polygon fill="red" stroke="red" points="1255.95,-1037.21 1265.83,-1033.39 1255.72,-1030.21 1255.95,-1037.21"/>
</g>
<!-- vx_samples&#45;&gt;Positional_error -->
<g id="edge22" class="edge">
<title>vx_samples&#45;&gt;Positional_error</title>
<path fill="none" stroke="blue" d="M1359.6,-152.31C1419.25,-174.13 1518.61,-220.35 1564,-298 1637.57,-423.85 1512.69,-836.26 1600,-953 1601.23,-954.64 1602.56,-956.18 1603.99,-957.63"/>
<polygon fill="blue" stroke="blue" points="1601.87,-960.42 1611.8,-964.12 1606.34,-955.04 1601.87,-960.42"/>
</g>
<!-- publish_frequency&#45;&gt;update_frequency -->
<g id="edge103" class="edge">
<title>publish_frequency&#45;&gt;update_frequency</title>
<path fill="none" stroke="red" d="M1377.84,-550.07C1393.04,-554.89 1409.21,-560.03 1424.43,-564.86"/>
<polygon fill="red" stroke="red" points="1378.89,-546.73 1368.29,-547.04 1376.77,-553.4 1378.89,-546.73"/>
<polygon fill="red" stroke="red" points="1423.68,-568.29 1434.27,-567.98 1425.8,-561.62 1423.68,-568.29"/>
</g>
<!-- resolution&#45;&gt;Planner_failed -->
<g id="edge6" class="edge">
<title>resolution&#45;&gt;Planner_failed</title>
<path fill="none" stroke="blue" d="M1355.41,-1045.94C1376.21,-1052.55 1401.49,-1060.58 1424.57,-1067.91"/>
<polygon fill="blue" stroke="blue" points="1423.71,-1071.31 1434.3,-1071 1425.83,-1064.63 1423.71,-1071.31"/>
</g>
<!-- resolution&#45;&gt;Obstacle_distance -->
<g id="edge34" class="edge">
<title>resolution&#45;&gt;Obstacle_distance</title>
<path fill="none" stroke="blue" d="M1336.58,-1050.16C1350.66,-1060.49 1368.47,-1073.76 1384,-1086 1400.36,-1098.89 1401.53,-1106.37 1420,-1116 1474.69,-1144.53 1542.19,-1162.36 1594.14,-1172.89"/>
<polygon fill="blue" stroke="blue" points="1593.5,-1176.33 1603.99,-1174.83 1594.85,-1169.46 1593.5,-1176.33"/>
</g>
<!-- resolution&#45;&gt;Energy -->
<g id="edge20" class="edge">
<title>resolution&#45;&gt;Energy</title>
<path fill="none" stroke="blue" d="M1341.84,-1050.14C1355.88,-1059.58 1372.05,-1072.06 1384,-1086 1406.26,-1111.96 1395.74,-1129.9 1420,-1154 1586.61,-1319.54 1860.95,-1416 1966.13,-1448.52"/>
<polygon fill="blue" stroke="blue" points="1965.18,-1451.89 1975.77,-1451.46 1967.23,-1445.19 1965.18,-1451.89"/>
</g>
<!-- resolution&#45;&gt;Task_success_rate -->
<g id="edge37" class="edge">
<title>resolution&#45;&gt;Task_success_rate</title>
<path fill="none" stroke="blue" d="M1355.26,-1030.81C1423.69,-1029.07 1560.18,-1026 1676,-1026 1676,-1026 1676,-1026 1846.5,-1026 1936.54,-1026 2039.03,-1038.98 2108.64,-1049.77"/>
<polygon fill="blue" stroke="blue" points="2108.25,-1053.25 2118.67,-1051.35 2109.33,-1046.34 2108.25,-1053.25"/>
</g>
<!-- transform_tolerance&#45;&gt;inflation_radius -->
<g id="edge110" class="edge">
<title>transform_tolerance&#45;&gt;inflation_radius</title>
<path fill="none" stroke="red" d="M1139.27,-750.57C1157.46,-778.96 1185.22,-825.86 1201,-870 1229.79,-950.52 1191.62,-986.52 1237,-1059 1244.37,-1070.77 1255.3,-1080.85 1266.45,-1089.01"/>
<polygon fill="red" stroke="red" points="1142.11,-748.51 1133.73,-742.03 1136.24,-752.32 1142.11,-748.51"/>
<polygon fill="red" stroke="red" points="1264.75,-1092.08 1274.97,-1094.86 1268.71,-1086.31 1264.75,-1092.08"/>
</g>
<!-- cost_scaling_factor -->
<g id="node33" class="node">
<title>cost_scaling_factor</title>
<text text-anchor="middle" x="92.5" y="-1598.3" font-family="Times,serif" font-size="14.00">cost_scaling_factor</text>
</g>
<!-- Planner_failed&#45;&gt;Positional_error -->
<g id="edge72" class="edge">
<title>Planner_failed&#45;&gt;Positional_error</title>
<path fill="none" stroke="red" d="M1532.36,-1065.56C1563.23,-1047.17 1605.99,-1021.7 1636.82,-1003.34"/>
<polygon fill="red" stroke="red" points="1530.43,-1062.63 1523.63,-1070.76 1534.01,-1068.65 1530.43,-1062.63"/>
<polygon fill="red" stroke="red" points="1638.77,-1006.25 1645.58,-998.12 1635.19,-1000.23 1638.77,-1006.25"/>
</g>
<!-- Planner_failed&#45;&gt;Obstacle_distance -->
<g id="edge74" class="edge">
<title>Planner_failed&#45;&gt;Obstacle_distance</title>
<path fill="none" stroke="red" d="M1529.16,-1112.8C1549.54,-1125.74 1575.72,-1141.6 1600,-1154 1606.57,-1157.36 1613.58,-1160.66 1620.59,-1163.8"/>
<polygon fill="red" stroke="red" points="1530.82,-1109.71 1520.52,-1107.26 1527.05,-1115.6 1530.82,-1109.71"/>
<polygon fill="red" stroke="red" points="1619.52,-1167.15 1630.09,-1167.95 1622.33,-1160.74 1619.52,-1167.15"/>
</g>
<!-- Planner_failed&#45;&gt;Task_success_rate -->
<g id="edge18" class="edge">
<title>Planner_failed&#45;&gt;Task_success_rate</title>
<path fill="none" stroke="blue" d="M1551.61,-1086.9C1675.87,-1082.45 1966.06,-1072.06 2108.78,-1066.94"/>
<polygon fill="blue" stroke="blue" points="2108.92,-1070.44 2118.79,-1066.59 2108.67,-1063.45 2108.92,-1070.44"/>
</g>
<!-- Recovery_executed -->
<g id="node36" class="node">
<title>Recovery_executed</title>
<text text-anchor="middle" x="1677" y="-922.3" font-family="Times,serif" font-size="14.00">Recovery_executed</text>
</g>
<!-- Mission_time -->
<g id="node39" class="node">
<title>Mission_time</title>
<text text-anchor="middle" x="1845.5" y="-938.3" font-family="Times,serif" font-size="14.00">Mission_time</text>
</g>
<!-- Recovery_executed&#45;&gt;Mission_time -->
<g id="edge33" class="edge">
<title>Recovery_executed&#45;&gt;Mission_time</title>
<path fill="none" stroke="blue" d="M1754.43,-933.34C1762.94,-934.16 1771.54,-934.99 1779.88,-935.79"/>
<polygon fill="blue" stroke="blue" points="1779.61,-939.28 1789.9,-936.75 1780.28,-932.31 1779.61,-939.28"/>
</g>
<!-- Recovery_executed&#45;&gt;Energy -->
<g id="edge35" class="edge">
<title>Recovery_executed&#45;&gt;Energy</title>
<path fill="none" stroke="blue" d="M1739.89,-944.17C1744.88,-946.76 1749.66,-949.69 1754,-953 1844.86,-1022.33 1848.36,-1062.55 1901,-1164 1949.8,-1258.05 1986.44,-1379.23 2001.49,-1433.07"/>
<polygon fill="blue" stroke="blue" points="1998.17,-1434.21 2004.21,-1442.92 2004.92,-1432.35 1998.17,-1434.21"/>
</g>
<!-- Recovery_executed&#45;&gt;Task_success_rate -->
<g id="edge3" class="edge">
<title>Recovery_executed&#45;&gt;Task_success_rate</title>
<path fill="none" stroke="blue" d="M1745.25,-907.92C1829.49,-889.16 1975.77,-869.69 2083,-926 2129.09,-950.2 2161.82,-1003.7 2178.45,-1036.52"/>
<polygon fill="blue" stroke="blue" points="2175.36,-1038.16 2182.91,-1045.59 2181.64,-1035.07 2175.36,-1038.16"/>
</g>
<!-- Traveled_distance -->
<g id="node38" class="node">
<title>Traveled_distance</title>
<text text-anchor="middle" x="2010" y="-976.3" font-family="Times,serif" font-size="14.00">Traveled_distance</text>
</g>
<!-- Positional_error&#45;&gt;Traveled_distance -->
<g id="edge98" class="edge">
<title>Positional_error&#45;&gt;Traveled_distance</title>
<path fill="none" stroke="red" d="M1752.28,-980C1804.1,-980 1873.29,-980 1926.78,-980"/>
<polygon fill="red" stroke="red" points="1752.21,-976.5 1742.21,-980 1752.21,-983.5 1752.21,-976.5"/>
<polygon fill="red" stroke="red" points="1926.92,-983.5 1936.92,-980 1926.92,-976.5 1926.92,-983.5"/>
</g>
<!-- Positional_error&#45;&gt;Mission_time -->
<g id="edge63" class="edge">
<title>Positional_error&#45;&gt;Mission_time</title>
<path fill="none" stroke="red" d="M1752.38,-963.02C1761.52,-960.94 1770.8,-958.82 1779.78,-956.77"/>
<polygon fill="red" stroke="red" points="1751.34,-959.67 1742.37,-965.31 1752.9,-966.5 1751.34,-959.67"/>
<polygon fill="red" stroke="red" points="1780.79,-960.13 1789.76,-954.49 1779.23,-953.31 1780.79,-960.13"/>
</g>
<!-- Mission_time&#45;&gt;Traveled_distance -->
<g id="edge32" class="edge">
<title>Mission_time&#45;&gt;Traveled_distance</title>
<path fill="none" stroke="blue" d="M1901.06,-954.76C1909.44,-956.72 1918.24,-958.78 1927.05,-960.84"/>
<polygon fill="blue" stroke="blue" points="1926.44,-964.29 1936.98,-963.16 1928.04,-957.47 1926.44,-964.29"/>
</g>
<!-- Mission_time&#45;&gt;Energy -->
<g id="edge40" class="edge">
<title>Mission_time&#45;&gt;Energy</title>
<path fill="none" stroke="blue" d="M1852.19,-960.17C1876.42,-1037.55 1971.11,-1340 2000.35,-1433.38"/>
<polygon fill="blue" stroke="blue" points="1997.03,-1434.48 2003.36,-1442.98 2003.71,-1432.39 1997.03,-1434.48"/>
</g>
<!-- Mission_time&#45;&gt;Task_success_rate -->
<g id="edge7" class="edge">
<title>Mission_time&#45;&gt;Task_success_rate</title>
<path fill="none" stroke="blue" d="M1901.24,-933.53C1950.94,-928.33 2025.09,-926.94 2083,-953 2122.65,-970.84 2155.31,-1010.44 2173.98,-1037.18"/>
<polygon fill="blue" stroke="blue" points="2171.25,-1039.4 2179.77,-1045.71 2177.05,-1035.47 2171.25,-1039.4"/>
</g>
<!-- Obstacle_distance&#45;&gt;Energy -->
<g id="edge8" class="edge">
<title>Obstacle_distance&#45;&gt;Energy</title>
<path fill="none" stroke="blue" d="M1699.72,-1204.04C1757.23,-1251.83 1913.58,-1381.72 1979.28,-1436.31"/>
<polygon fill="blue" stroke="blue" points="1977.27,-1439.19 1987.2,-1442.89 1981.75,-1433.81 1977.27,-1439.19"/>
</g>
<!-- Obstacle_distance&#45;&gt;Task_success_rate -->
<g id="edge19" class="edge">
<title>Obstacle_distance&#45;&gt;Task_success_rate</title>
<path fill="none" stroke="blue" d="M1750.14,-1168.84C1844.59,-1146.38 2009.76,-1107.1 2108.9,-1083.53"/>
<polygon fill="blue" stroke="blue" points="2109.95,-1086.87 2118.87,-1081.15 2108.33,-1080.06 2109.95,-1086.87"/>
</g>
<!-- Energy&#45;&gt;Task_success_rate -->
<g id="edge83" class="edge">
<title>Energy&#45;&gt;Task_success_rate</title>
<path fill="none" stroke="red" d="M2023.46,-1433.51C2056.4,-1360.87 2145.47,-1164.41 2178.48,-1091.62"/>
<polygon fill="red" stroke="red" points="2020.14,-1432.36 2019.2,-1442.91 2026.52,-1435.25 2020.14,-1432.36"/>
<polygon fill="red" stroke="red" points="2181.81,-1092.75 2182.75,-1082.2 2175.43,-1089.86 2181.81,-1092.75"/>
</g>
</g>
</svg>
